# xmcd
#
# Track frame offsets:
#	150
#	27300
#	56550
#	86250
#
# Disc length: 1440 seconds
#
# Revision: 1
# Processed by: cddbd v1.5.2PL0 Copyright (c) Steve Scherf et al.
# Submitted via: audiograbber 1.83.01
#
DISCID=26059e04
DTITLE=The Lewis Creaven Band - The Lewis Creaven Band EP
DYEAR=2010
DGENRE=Blues
TTITLE0=Ageless Child
TTITLE1=Around Your Neck
TTITLE2=It's Too Late
TTITLE3=Sky Is The Limit
EXTD=LCBCD001\nwww.creaven.co.uk
EXTT0=
EXTT1=
EXTT2=
EXTT3=
PLAYORDER=
